<svg width="113" height="113" viewBox="0 0 113 113" fill="none" xmlns="http://www.w3.org/2000/svg">
<path d="M37.659 14.0814C24.6593 14.0814 14.1173 24.6233 14.1173 37.623V75.2897C14.1173 88.2894 24.6593 98.8314 37.659 98.8314H75.3256C88.3253 98.8314 98.8672 88.2894 98.8672 75.2897V37.623C98.8672 24.6233 88.3253 14.0814 75.3256 14.0814H37.659ZM37.659 23.498H75.3256C83.1273 23.498 89.4506 29.8213 89.4506 37.623V75.2897C89.4506 83.0914 83.1273 89.4147 75.3256 89.4147H37.659C29.8573 89.4147 23.534 83.0914 23.534 75.2897V37.623C23.534 29.8213 29.8573 23.498 37.659 23.498ZM75.3256 32.9147C72.7266 32.9147 70.6173 35.024 70.6173 37.623C70.6173 40.222 72.7266 42.3314 75.3256 42.3314C77.9246 42.3314 80.0339 40.222 80.0339 37.623C80.0339 35.024 77.9246 32.9147 75.3256 32.9147ZM56.4923 37.623C46.0916 37.623 37.659 46.0557 37.659 56.4564C37.659 66.8571 46.0916 75.2897 56.4923 75.2897C66.893 75.2897 75.3256 66.8571 75.3256 56.4564C75.3256 46.0557 66.893 37.623 56.4923 37.623ZM56.4923 47.0397C61.695 47.0397 65.9089 51.2537 65.9089 56.4564C65.9089 61.6591 61.695 65.873 56.4923 65.873C51.2896 65.873 47.0756 61.6591 47.0756 56.4564C47.0756 51.2537 51.2896 47.0397 56.4923 47.0397Z" fill="#2A343D"/>
</svg>
