<svg width="113" height="113" viewBox="0 0 113 113" fill="none" xmlns="http://www.w3.org/2000/svg">
<path d="M72.974 13.794C61.2724 13.794 51.7865 23.2813 51.7865 34.9815C51.7865 46.6817 61.2724 56.169 72.974 56.169C84.6756 56.169 94.1615 46.6817 94.1615 34.9815C94.1615 23.2813 84.6756 13.794 72.974 13.794ZM37.6615 18.5023C27.2603 18.5023 18.8282 26.9349 18.8282 37.3357C18.8282 47.7364 27.2603 56.169 37.6615 56.169C41.5666 56.169 45.2654 54.9778 48.4021 52.7837C50.5336 51.2959 51.0689 48.2967 49.5792 46.1638C48.0895 44.0309 45.2367 43.6449 43.1053 45.1327C41.5379 46.2297 39.6211 46.7523 37.6615 46.7523C32.4607 46.7523 28.2448 42.5384 28.2448 37.3357C28.2448 32.1329 32.4607 27.919 37.6615 27.919C39.1973 27.919 40.6023 28.258 41.9282 28.9501C44.2353 30.1507 47.2025 29.341 48.4021 27.0339C49.6023 24.7315 48.6493 21.7604 46.3427 20.5645C43.682 19.1803 40.7191 18.5023 37.6615 18.5023ZM72.974 23.2107C79.4748 23.2107 84.7448 28.4793 84.7448 34.9815C84.7448 41.4837 79.4748 46.7523 72.974 46.7523C66.4732 46.7523 61.2032 41.4837 61.2032 34.9815C61.2032 28.4793 66.4732 23.2107 72.974 23.2107ZM23.8308 62.497C15.1952 66.0612 9.4115 74.7952 9.4115 84.419V93.8357C9.4115 96.4347 11.5194 98.544 14.1198 98.544H32.9532C35.5536 98.544 37.6615 96.4347 37.6615 93.8357C37.6615 91.2367 35.5536 89.1273 32.9532 89.1273H18.8282V84.419C18.8282 79.1268 21.9672 74.2679 25.5752 72.1303C28.9685 73.5616 32.5581 74.6446 35.7504 74.913C38.3419 75.1342 40.6786 73.1803 40.8985 70.586C41.1183 67.9964 39.2459 65.8024 36.6549 65.5811C34.5879 65.4069 32.3288 64.7852 29.7162 63.674C29.0853 63.4057 28.719 63.1938 27.5094 62.643C26.3234 62.1015 25.0352 61.9979 23.8308 62.497ZM56.7891 62.497C48.1535 66.0612 42.3698 74.7952 42.3698 84.419V93.8357C42.3698 96.4347 44.4777 98.544 47.0782 98.544H98.8698C101.47 98.544 103.578 96.4347 103.578 93.8357V84.419C103.578 75.0212 97.7624 66.4991 89.1589 62.7889C87.9479 62.2663 86.5368 62.2522 85.3334 62.7889C81.1674 64.6581 77.1088 65.5857 72.974 65.5857C68.8532 65.5857 64.7805 64.6063 60.4677 62.643C59.2817 62.1015 57.9935 61.9979 56.7891 62.497ZM58.5994 72.1303C63.0479 73.8159 68.4111 75.0023 72.974 75.0023C77.501 75.0023 82.6426 73.8957 87.0011 72.2855C91.2508 74.7056 94.1615 79.2351 94.1615 84.419V89.1273H51.7865V84.419C51.7865 78.9338 54.8747 74.3103 58.5994 72.1303Z" fill="#2A343D"/>
</svg>
